<?xml version="1.0" encoding="utf-8"?>
<!-- Generator: Adobe Illustrator 16.0.0, SVG Export Plug-In . SVG Version: 6.00 Build 0)  -->
<!DOCTYPE svg PUBLIC "-//W3C//DTD SVG 1.1//EN" "http://www.w3.org/Graphics/SVG/1.1/DTD/svg11.dtd">
<svg version="1.1" id="Layer_1" xmlns="http://www.w3.org/2000/svg" xmlns:xlink="http://www.w3.org/1999/xlink" x="0px" y="0px"
	 width="106.333px" height="31px" viewBox="-9.74 0 106.333 31" enable-background="new -9.74 0 106.333 31" xml:space="preserve">
<g>
	<path fill="#FFFFFF" d="M-1.612,28.793c-2.107-1.228-3.733-2.987-4.877-5.276c-1.145-2.287-1.716-4.968-1.716-8.038
		S-7.64,9.737-6.51,7.462c1.13-2.274,2.756-4.025,4.877-5.253c2.12-1.228,4.619-1.842,7.493-1.842c2.874,0,5.365,0.614,7.473,1.842
		c2.107,1.228,3.726,2.979,4.856,5.253c1.13,2.275,1.696,4.947,1.696,8.017s-0.572,5.75-1.716,8.038
		c-1.146,2.289-2.771,4.049-4.877,5.276c-2.107,1.228-4.584,1.841-7.431,1.841C2.986,30.634,0.495,30.021-1.612,28.793z
		 M12.203,23.517c1.521-1.869,2.281-4.55,2.281-8.038c0-3.488-0.76-6.16-2.281-8.017c-1.521-1.855-3.636-2.784-6.343-2.784
		c-2.735,0-4.863,0.928-6.384,2.784c-1.521,1.857-2.282,4.529-2.282,8.017c0,3.488,0.76,6.168,2.282,8.038
		c1.521,1.87,3.648,2.806,6.384,2.806C8.568,26.322,10.682,25.387,12.203,23.517z"/>
	<path fill="#FFFFFF" d="M32.403,5.809c-0.586,0.698-0.879,1.702-0.879,3.014v0.962h3.558c1.563,0,2.345,0.657,2.345,1.968
		c0,1.312-0.782,1.968-2.345,1.968h-3.558v14.275c0,0.812-0.245,1.423-0.732,1.844c-0.489,0.418-1.109,0.626-1.863,0.626
		c-0.753,0-1.381-0.208-1.884-0.626c-0.502-0.421-0.753-1.032-0.753-1.844V13.721h-2.094c-1.563,0-2.345-0.656-2.345-1.968
		c0-1.312,0.782-1.968,2.345-1.968h2.094V9.493c0-2.624,0.69-4.682,2.072-6.175c1.382-1.493,3.328-2.337,5.84-2.533l1.088-0.083
		c1.116-0.083,1.904,0.035,2.365,0.356c0.46,0.321,0.69,0.816,0.69,1.486c0,1.201-0.684,1.871-2.051,2.01l-1.089,0.083
		C33.923,4.72,32.989,5.111,32.403,5.809z"/>
	<path fill="#FFFFFF" d="M47.013,5.809c-0.586,0.698-0.879,1.702-0.879,3.014v0.962h3.559c1.563,0,2.345,0.657,2.345,1.968
		c0,1.312-0.782,1.968-2.345,1.968h-3.559v14.275c0,0.812-0.244,1.423-0.732,1.844c-0.489,0.418-1.109,0.626-1.863,0.626
		c-0.754,0-1.382-0.208-1.884-0.626c-0.502-0.421-0.753-1.032-0.753-1.844V13.721h-2.094c-1.563,0-2.344-0.656-2.344-1.968
		c0-1.312,0.781-1.968,2.344-1.968h2.094V9.493c0-2.624,0.69-4.682,2.072-6.175c1.381-1.493,3.328-2.337,5.84-2.533l1.088-0.083
		c1.116-0.083,1.905,0.035,2.366,0.356c0.46,0.321,0.69,0.816,0.69,1.486c0,1.201-0.685,1.871-2.051,2.01l-1.089,0.083
		C48.534,4.72,47.599,5.111,47.013,5.809z"/>
	<path fill="#FFFFFF" d="M71.608,25.191c0.293,0.364,0.44,0.852,0.44,1.466c0,0.866-0.518,1.591-1.55,2.178
		c-0.949,0.529-2.022,0.955-3.224,1.276c-1.2,0.319-2.344,0.48-3.433,0.48c-3.294,0-5.903-0.947-7.829-2.846
		c-1.926-1.898-2.889-4.495-2.889-7.786c0-2.094,0.419-3.95,1.256-5.569c0.837-1.618,2.016-2.874,3.538-3.768
		c1.521-0.893,3.244-1.34,5.171-1.34c1.842,0,3.446,0.405,4.814,1.214c1.366,0.81,2.428,1.954,3.182,3.433
		c0.752,1.479,1.13,3.223,1.13,5.233c0,1.2-0.531,1.802-1.592,1.802H58.275c0.167,1.925,0.711,3.341,1.632,4.247
		c0.922,0.908,2.262,1.36,4.02,1.36c0.893,0,1.681-0.111,2.365-0.334s1.458-0.529,2.324-0.92c0.836-0.448,1.45-0.671,1.841-0.671
		C70.931,24.647,71.316,24.83,71.608,25.191z M59.802,14.307c-0.852,0.894-1.36,2.176-1.527,3.851h9.461
		c-0.056-1.702-0.475-2.993-1.256-3.872c-0.781-0.879-1.87-1.319-3.265-1.319C61.79,12.967,60.654,13.414,59.802,14.307z"/>
	<path fill="#FFFFFF" d="M94.57,28.122c0,0.613-0.237,1.166-0.712,1.653s-1.033,0.732-1.674,0.732c-0.698,0-1.298-0.292-1.801-0.879
		l-5.902-6.531l-5.902,6.531c-0.531,0.56-1.132,0.837-1.801,0.837c-0.614,0-1.158-0.235-1.633-0.71
		c-0.475-0.476-0.711-1.021-0.711-1.634c0-0.642,0.251-1.213,0.754-1.715l6.111-6.658l-5.777-6.279
		c-0.503-0.502-0.754-1.074-0.754-1.716c0-0.642,0.237-1.193,0.712-1.654s1.019-0.691,1.633-0.691c0.67,0,1.27,0.28,1.801,0.837
		l5.567,6.112l5.568-6.112c0.529-0.558,1.13-0.837,1.8-0.837c0.642,0,1.192,0.23,1.654,0.691c0.46,0.46,0.69,1.012,0.69,1.654
		c0,0.643-0.251,1.214-0.754,1.716l-5.777,6.279l6.153,6.658C94.319,26.909,94.57,27.48,94.57,28.122z"/>
</g>
<ellipse fill="#FFFFFF" cx="6.109" cy="15.454" rx="5.755" ry="6.963"/>
</svg>
